<?xml version="1.0" encoding="UTF-8"?>
<svg id="Calque_2" data-name="Calque 2" xmlns="http://www.w3.org/2000/svg" viewBox="0 0 175.62 175.59">
  <defs>
    <style>
      .cls-1 {
        fill: #c0ff7e;
      }
    </style>
  </defs>
  <g id="Ebene_1" data-name="Ebene 1">
    <path class="cls-1" d="M171.8,70.23c2.11,0,3.82-1.71,3.82-3.8s-1.71-3.79-3.82-3.79h-12.62v-13.77h12.62c2.11,0,3.82-1.69,3.82-3.8s-1.71-3.79-3.82-3.79h-12.62v-18.23c0-3.66-2.97-6.63-6.63-6.63h-18.22V3.79c0-2.1-1.71-3.79-3.79-3.79s-3.8,1.69-3.8,3.79v12.62h-13.77V3.79c0-2.1-1.69-3.79-3.79-3.79s-3.8,1.69-3.8,3.79v12.62h-13.76V3.79c0-2.1-1.71-3.79-3.82-3.79s-3.79,1.69-3.79,3.79v12.62h-13.77V3.79c0-2.1-1.71-3.79-3.79-3.79s-3.8,1.69-3.8,3.79v12.62h-13.77V3.79c0-2.1-1.69-3.79-3.8-3.79s-3.79,1.69-3.79,3.79v12.62h-18.23c-3.65,0-6.63,2.97-6.63,6.63v18.23H3.79c-2.08,0-3.79,1.69-3.79,3.79s1.71,3.8,3.79,3.8h12.63v13.77H3.79c-2.08,0-3.79,1.71-3.79,3.79s1.71,3.8,3.79,3.8h12.63v13.77H3.79c-2.08,0-3.79,1.69-3.79,3.79s1.71,3.8,3.79,3.8h12.63v13.76H3.79c-2.08,0-3.79,1.72-3.79,3.82s1.71,3.79,3.79,3.79h12.63v13.77H3.79c-2.08,0-3.79,1.69-3.79,3.79s1.71,3.8,3.79,3.8h12.63v18.23c0,3.66,2.98,6.63,6.63,6.63h18.23v12.62c0,2.1,1.69,3.79,3.79,3.79s3.8-1.69,3.8-3.79v-12.62h13.77v12.62c0,2.1,1.71,3.79,3.8,3.79s3.79-1.69,3.79-3.79v-12.62h13.77v12.62c0,2.1,1.69,3.79,3.79,3.79s3.82-1.69,3.82-3.79v-12.62h13.76v12.62c0,2.1,1.71,3.79,3.8,3.79s3.79-1.69,3.79-3.79v-12.62h13.77v12.62c0,2.1,1.71,3.79,3.8,3.79s3.79-1.69,3.79-3.79v-12.62h18.22c3.66,0,6.63-2.97,6.63-6.63v-18.23h12.62c2.11,0,3.82-1.71,3.82-3.8s-1.71-3.79-3.82-3.79h-12.62v-13.77h12.62c2.11,0,3.82-1.71,3.82-3.79s-1.71-3.82-3.82-3.82h-12.62v-13.76h12.62c2.11,0,3.82-1.69,3.82-3.8s-1.71-3.79-3.82-3.79h-12.62v-13.77h12.62ZM77.46,126.36c0,.81-.66,1.47-1.45,1.47h-3.69c-.81,0-1.47-.66-1.47-1.47v-26.19c0-.81.66-1.47,1.47-1.47h3.69c.8,0,1.45.66,1.45,1.47v26.19ZM91.28,134.08c0,.81-.64,1.47-1.45,1.47h-3.69c-.81,0-1.45-.66-1.45-1.47v-26.19c0-.81.64-1.47,1.45-1.47h3.69c.81,0,1.45.66,1.45,1.47v26.19ZM105.1,126.38c0,.8-.66,1.45-1.47,1.45h-3.69c-.8,0-1.45-.66-1.45-1.45v-26.2c0-.81.66-1.45,1.45-1.45h3.69c.81,0,1.47.64,1.47,1.45v26.2ZM130.86,95.98s-.04.06-.05.1l-1.67,2.73c-.58.92-1.78,1.24-2.73.69l-25.34-14.4c-.4-.23-.73-.59-.88-1.04l-12.48-35.08-12.52,35.16c-.16.45-.47.82-.88,1.05l-25.09,14.23c-.92.52-2.12.24-2.7-.67l-1.69-2.72c-.54-.9-.27-2.06.63-2.6.04-.01.06-.03.1-.05l22.98-12.87c.42-.24.73-.59.9-1.05l13.56-38.09c.29-.8,1.04-1.31,1.87-1.31h5.67c.86-.01,1.62.52,1.91,1.31l13.5,38c.15.45.48.82.9,1.06l23.26,13c.91.49,1.26,1.64.77,2.55Z"/>
  </g>
</svg>