<?xml version="1.0" encoding="UTF-8"?>
<svg id="Calque_2" data-name="Calque 2" xmlns="http://www.w3.org/2000/svg" viewBox="0 0 282.43 283.81">
  <defs>
    <style>
      .cls-1 {
        fill: #0b1928;
      }
    </style>
  </defs>
  <g id="Ebene_1" data-name="Ebene 1">
    <g>
      <path class="cls-1" d="M79.04,118.18c-2.36.01-4.71.02-7.07.02-.39,0-.73-.04-1.02-.13-1.93-5.87-7.47-10.11-13.98-10.11-8.12,0-14.72,6.6-14.72,14.72s6.6,14.72,14.72,14.72c6.25,0,11.61-3.92,13.74-9.43.71-.33,1.55-.43,2.59-.39.98.04,3.01.05,5.74.06v-9.47Z"/>
      <path class="cls-1" d="M23.6,146.14h9.14v-9.04h-9.14v9.04Z"/>
      <path class="cls-1" d="M70.6,85.07h-9.21v9.11h9.21v-9.11Z"/>
      <path class="cls-1" d="M99.51,56.91c0-8.12-6.61-14.73-14.72-14.73s-14.73,6.61-14.73,14.73c0,6.53,4.28,12.09,10.19,14,0,2.68,0,5.37,0,8.07h9.51c.01-2.13,0-4.22-.06-6.31-.02-.8.04-1.45.28-1.99,5.57-2.1,9.54-7.48,9.54-13.78Z"/>
      <path class="cls-1" d="M79.04,160.88v-9.61h-21.11c-4.43,0-6.02,1.55-6.03,6.05-.04,6.99-.05,13.98.03,20.98,0,.69-.05,1.24-.27,1.7-5.72,2.02-9.83,7.48-9.83,13.88,0,8.12,6.61,14.72,14.72,14.72s14.72-6.6,14.72-14.72c0-6.38-4.08-11.83-9.78-13.87v-19.13h17.54Z"/>
      <path class="cls-1" d="M127.55,204.45c.01,19.36,0,40.03-.04,50.87-.04,10.47-8.49,18.84-18.75,18.88-10.22.05-18.76-8.16-19.04-18.3-.15-5.51-1.86-6.87-7.38-5.86-15.59,2.86-28.1-9.73-25.18-25.32.98-5.24-.48-6.97-5.78-7.29-9.63-.59-16.94-5.02-20.95-13.91-4-8.87-2.65-17.28,3.43-24.87,3.69-4.61,2.65-7.84-3.09-9.34-12.66-3.33-21.38-14.49-21.42-27.43-.04-12.9,8.66-24.13,21.32-27.48,5.91-1.57,6.93-4.77,3.05-9.53-6.87-8.44-7.35-19.99-1.05-28.75,4.68-6.51,11.18-9.7,19.16-9.94,4.67-.14,6.27-2.17,5.4-6.82-.25-1.35-.54-2.71-.59-4.08-.51-14.26,11.97-24.43,26.42-21.57,4.35.86,6.58-.79,6.66-4.94.22-11.06,8.27-19.32,18.87-19.34,10.69-.02,18.81,8.26,18.94,19.37.04,3.39-.05,35.51.04,50.58h9.43c0-15.35,0-30.7.02-46.05,0-6.25-.14-12.42-3.24-18.07C127.52,3.87,117.42-1.08,105.38.2c-12.64,1.34-21.77,10.22-24.76,23.36-9.28-.34-17.58,2.31-24.32,9.02-6.73,6.71-9.47,14.96-9.16,24.27-24.52,4.74-35.04,29.92-23.83,49.79C8.57,113.74-.02,125.29,0,141.83c.02,16.45,8.49,27.98,23.31,35.1-5.44,10.17-6.29,20.61-1.24,31.08,4.99,10.37,13.46,16.39,25.02,18.63-.25,9.18,2.35,17.51,9.04,24.24,6.71,6.75,14.96,9.5,24.46,9.15,1.55,7.61,5.24,13.85,11.56,18.26,9.27,6.47,19.27,7.33,29.29,2.21,10.12-5.17,15.43-13.88,15.51-25.28.13-16.93.09-33.85.07-50.77h-9.47Z"/>
      <path class="cls-1" d="M99.09,204.45v8.47c-5.78,1.99-9.94,7.48-9.94,13.92,0,8.11,6.6,14.72,14.72,14.72s14.72-6.61,14.72-14.72c0-6.39-4.1-11.86-9.8-13.88v-8.52h-9.7Z"/>
      <path class="cls-1" d="M225.46,107.96c-6.51,0-12.04,4.24-13.98,10.11-.29.09-.63.13-1.02.13-2.36,0-4.71-.01-7.07-.02v9.47c2.73-.02,4.76-.04,5.74-.07,1.05-.04,1.89.06,2.59.39,2.13,5.51,7.48,9.43,13.74,9.43,8.12,0,14.72-6.6,14.72-14.72s-6.6-14.72-14.72-14.72Z"/>
      <path class="cls-1" d="M197.65,42.18c-8.11,0-14.72,6.61-14.72,14.73,0,6.29,3.98,11.68,9.54,13.78.18.61.28,1.11.28,1.99,0,2.09-.08,4.17-.07,6.31h9.51c0-2.7,0-5.4,0-8.07,5.91-1.91,10.19-7.47,10.19-14,0-8.12-6.61-14.73-14.73-14.73Z"/>
      <path class="cls-1" d="M211.83,94.18h9.21v-9.11h-9.21v9.11Z"/>
      <path class="cls-1" d="M258.84,137.11h-9.14v9.04h9.14v-9.04Z"/>
      <path class="cls-1" d="M282.43,141.83c.02-16.54-8.57-28.09-23.3-35.18,11.21-19.88.69-45.05-23.83-49.79.31-9.31-2.43-17.56-9.16-24.27-6.74-6.72-15.04-9.36-24.32-9.02-3-13.14-12.13-22.02-24.76-23.36-12.04-1.28-22.15,3.68-28.4,15.05-3.1,5.65-3.25,11.82-3.24,18.07.01,15.35.02,30.7.02,46.05h9.43c.09-15.06,0-47.19.04-50.58.14-11.11,8.26-19.39,18.94-19.37,10.59.02,18.64,8.28,18.87,19.34.08,4.14,2.31,5.8,6.66,4.94,14.46-2.86,26.94,7.31,26.42,21.57-.05,1.37-.33,2.73-.59,4.08-.87,4.65.73,6.68,5.4,6.82,7.98.24,14.48,3.43,19.16,9.94,6.3,8.76,5.82,20.31-1.05,28.75-3.88,4.76-2.86,7.97,3.05,9.53,12.66,3.35,21.37,14.57,21.32,27.48-.05,12.94-8.77,24.1-21.42,27.43-5.74,1.51-6.77,4.73-3.09,9.34,6.08,7.59,7.43,16,3.43,24.87-4.01,8.88-11.32,13.32-20.95,13.91-5.3.32-6.76,2.06-5.78,7.29,2.93,15.6-9.59,28.19-25.18,25.32-5.52-1.01-7.23.35-7.38,5.86-.28,10.14-8.82,18.35-19.04,18.3-10.27-.04-18.71-8.42-18.75-18.88-.04-10.84-.05-31.51-.04-50.87h-9.46c-.02,16.93-.07,33.85.07,50.77.09,11.4,5.4,20.11,15.51,25.28,10.02,5.12,20.02,4.26,29.29-2.21,6.32-4.4,10.01-10.64,11.56-18.26,9.5.35,17.75-2.4,24.46-9.15,6.7-6.73,9.29-15.05,9.04-24.24,11.55-2.24,20.02-8.26,25.02-18.63,5.05-10.47,4.21-20.91-1.24-31.08,14.82-7.12,23.29-18.65,23.31-35.1Z"/>
      <path class="cls-1" d="M211.16,193.88c0,8.12,6.6,14.72,14.72,14.72s14.72-6.6,14.72-14.72c0-6.4-4.11-11.86-9.83-13.88-.21-.46-.27-1.02-.27-1.7.08-6.99.07-13.98.03-20.98-.02-4.49-1.61-6.05-6.03-6.05h-21.11v9.61h17.54v19.13c-5.69,2.03-9.78,7.48-9.78,13.87Z"/>
      <path class="cls-1" d="M173.65,204.45v8.52c-5.71,2.02-9.8,7.48-9.8,13.88,0,8.11,6.6,14.72,14.72,14.72s14.72-6.61,14.72-14.72c0-6.45-4.16-11.94-9.94-13.92v-8.47h-9.7Z"/>
      <path class="cls-1" d="M189.22,131.87c1.21,0,2.18-.97,2.18-2.17s-.97-2.17-2.18-2.17h-7.21v-7.87h7.21c1.21,0,2.18-.97,2.18-2.17s-.97-2.17-2.18-2.17h-7.21v-10.42c0-2.09-1.7-3.79-3.79-3.79h-10.41v-7.21c0-1.2-.97-2.17-2.17-2.17s-2.17.97-2.17,2.17v7.21h-7.87v-7.21c0-1.2-.97-2.17-2.17-2.17s-2.17.97-2.17,2.17v7.21h-7.86v-7.21c0-1.2-.97-2.17-2.18-2.17s-2.17.97-2.17,2.17v7.21h-7.87v-7.21c0-1.2-.97-2.17-2.17-2.17s-2.17.97-2.17,2.17v7.21h-7.87v-7.21c0-1.2-.97-2.17-2.17-2.17s-2.17.97-2.17,2.17v7.21h-10.42c-2.09,0-3.79,1.7-3.79,3.79v10.42h-7.22c-1.19,0-2.17.97-2.17,2.17s.97,2.17,2.17,2.17h7.22v7.87h-7.22c-1.19,0-2.17.97-2.17,2.17s.97,2.17,2.17,2.17h7.22v7.87h-7.22c-1.19,0-2.17.97-2.17,2.17s.97,2.17,2.17,2.17h7.22v7.86h-7.22c-1.19,0-2.17.98-2.17,2.18s.97,2.17,2.17,2.17h7.22v7.87h-7.22c-1.19,0-2.17.97-2.17,2.17s.97,2.17,2.17,2.17h7.22v10.42c0,2.09,1.7,3.79,3.79,3.79h10.42v7.21c0,1.2.97,2.17,2.17,2.17s2.17-.97,2.17-2.17v-7.21h7.87v7.21c0,1.2.97,2.17,2.17,2.17s2.17-.97,2.17-2.17v-7.21h7.87v7.21c0,1.2.97,2.17,2.17,2.17s2.18-.97,2.18-2.17v-7.21h7.86v7.21c0,1.2.97,2.17,2.17,2.17s2.17-.97,2.17-2.17v-7.21h7.87v7.21c0,1.2.97,2.17,2.17,2.17s2.17-.97,2.17-2.17v-7.21h10.41c2.09,0,3.79-1.7,3.79-3.79v-10.42h7.21c1.21,0,2.18-.97,2.18-2.17s-.97-2.17-2.18-2.17h-7.21v-7.87h7.21c1.21,0,2.18-.97,2.18-2.17s-.97-2.18-2.18-2.18h-7.21v-7.86h7.21c1.21,0,2.18-.97,2.18-2.17s-.97-2.17-2.18-2.17h-7.21v-7.87h7.21ZM135.3,163.94c0,.46-.38.84-.83.84h-2.11c-.46,0-.84-.38-.84-.84v-14.97c0-.46.38-.84.84-.84h2.11c.45,0,.83.38.83.84v14.97ZM143.2,168.35c0,.46-.37.84-.83.84h-2.11c-.46,0-.83-.38-.83-.84v-14.97c0-.46.37-.84.83-.84h2.11c.46,0,.83.38.83.84v14.97ZM151.1,163.96c0,.45-.38.83-.84.83h-2.11c-.45,0-.83-.38-.83-.83v-14.97c0-.46.38-.83.83-.83h2.11c.46,0,.84.37.84.83v14.97ZM165.82,146.58s-.02.04-.03.06l-.95,1.56c-.33.53-1.02.71-1.56.4l-14.48-8.23c-.23-.13-.42-.34-.51-.59l-7.13-20.05-7.15,20.09c-.09.26-.27.47-.51.6l-14.34,8.13c-.53.3-1.21.14-1.54-.38l-.97-1.55c-.31-.51-.15-1.18.36-1.49.02,0,.04-.01.06-.03l13.13-7.36c.24-.14.42-.34.51-.6l7.75-21.77c.17-.45.59-.75,1.07-.75h3.24c.49,0,.92.3,1.09.75l7.72,21.72c.09.26.27.47.51.61l13.29,7.43c.52.28.72.94.44,1.46Z"/>
    </g>
  </g>
</svg>