<?xml version="1.0" encoding="UTF-8"?>
<svg id="Calque_2" data-name="Calque 2" xmlns="http://www.w3.org/2000/svg" viewBox="0 0 1216.1 103.71">
  <defs>
    <style>
      .cls-1 {
        fill: #f6f6f6;
      }

      .cls-2 {
        fill: #c0ff7e;
      }
    </style>
  </defs>
  <g id="Ebene_1" data-name="Ebene 1">
    <g>
      <g>
        <rect class="cls-2" x="58.6" y="63.72" width="7.17" height="31.62" rx="1.58" ry="1.58"/>
        <rect class="cls-2" x="28.58" y="63.71" width="7.17" height="31.62" rx="1.58" ry="1.58"/>
        <rect class="cls-2" x="43.6" y="72.09" width="7.17" height="31.62" rx="1.58" ry="1.58"/>
        <path class="cls-2" d="M60.44,47.8l-13.55-38.1-13.6,38.18c-.17.49-.51.9-.96,1.14l-27.24,15.44c-1.02.58-2.31.26-2.95-.72l-1.84-2.95c-.59-.97-.28-2.23.69-2.82.03-.02.07-.04.1-.06l24.97-13.99c.45-.25.8-.65.98-1.13L41.75,1.41C42.06.56,42.88,0,43.78,0h6.16c.92-.02,1.75.55,2.07,1.41l14.66,41.28c.17.49.52.9.98,1.14l25.25,14.13c1,.53,1.38,1.78.85,2.78-.02.03-.04.07-.06.1l-1.82,2.96c-.62,1.01-1.93,1.34-2.96.76l-27.53-15.64c-.45-.25-.79-.65-.96-1.13Z"/>
      </g>
      <g>
        <g>
          <path class="cls-1" d="M321.46,91.18c-1.77,0-3.21-1.42-3.22-3.19V24.98h-23.68c-1.76-.02-3.18-1.44-3.19-3.19v-6.5c.02-1.76,1.44-3.18,3.19-3.19h59.9c1.73.06,3.11,1.49,3.11,3.22v6.5c-.03,1.71-1.4,3.1-3.11,3.16h-23.31v63.01c-.02,1.77-1.45,3.19-3.22,3.19h-6.47Z"/>
          <path class="cls-1" d="M392.05,93.08c-4.18-.04-8.32-.8-12.23-2.26-4.56-1.79-8.92-4.03-13.03-6.7-.56-.37-.95-.95-1.07-1.61-.13-.66.02-1.35.42-1.89l3.73-5.31c.46-.65,1.21-1.04,2.01-1.05.46,0,.91.13,1.3.37,3.32,2.15,6.84,3.98,10.51,5.45,2.63.96,5.4,1.47,8.19,1.5,6.47,0,10.74-2.83,12.12-5.65,2.37-5.06,1.95-11.56-4.38-14.72-1.98-.99-4.8-2.23-7.29-3.31-3.48-1.53-7.18-3.14-10.79-4.92-12.57-6.19-17.52-18.34-11.98-29.56,4.25-8.18,12.86-13.14,22.07-12.72,3.15.02,6.28.48,9.3,1.38,4.57,1.63,8.98,3.69,13.17,6.13.6.32,1.05.87,1.24,1.53.18.66.08,1.37-.28,1.95l-3.45,5.65c-.47.67-1.22,1.07-2.03,1.07-.4-.01-.8-.11-1.16-.28-3.42-2.02-7.01-3.72-10.74-5.09-1.91-.59-3.9-.89-5.91-.9-4.87-.38-9.52,2.06-11.98,6.27-4.1,8.48,4.94,13.37,6.81,14.3,3.48,1.7,7.09,3.28,10.29,4.66,2.83,1.22,5.65,2.46,7.86,3.56,11.1,5.65,15.12,18.11,9.55,29.89-3.62,7.43-12.35,12.23-22.24,12.23Z"/>
          <path class="cls-1" d="M274.39,91.63c-1.18,0-2.28-.65-2.83-1.7l-14.98-28.26h-16.45v26.67c0,1.78-1.44,3.22-3.22,3.22h-6.5c-1.78,0-3.22-1.44-3.22-3.22V15.91c0-1.78,1.44-3.22,3.22-3.22h25.94c13.67.03,24.73,11.13,24.7,24.8,0,.14,0,.29,0,.43,0,6.21-2.53,12.16-7.01,16.47-1.67,1.66-3.58,3.08-5.65,4.21l-.71.4,15.4,28.99c.44.75.44,1.68,0,2.43-.44.76-1.25,1.22-2.12,1.22h-6.58ZM244.97,50.41h11.5c3.57-.1,6.98-1.53,9.55-4.01,2.3-2.22,3.62-5.28,3.65-8.48.33-7.34-5.36-13.56-12.7-13.89-.15,0-.29-.01-.44-.01h-16.39v26.39h4.83Z"/>
          <path class="cls-1" d="M209.2,87.14l-24.87-72c-.42-1.22-1.54-2.05-2.83-2.12h-9.66c-1.37,0-2.59.86-3.05,2.15l-24.95,71.97c-.58,1.67.31,3.48,1.97,4.06.34.12.69.18,1.05.18h6.53c1.36,0,2.58-.86,3.02-2.15l20.12-58.18,19.98,58.21c.45,1.29,1.66,2.15,3.02,2.15h6.53c1.76.07,3.25-1.3,3.32-3.06.02-.41-.05-.82-.18-1.21Z"/>
        </g>
        <g>
          <path class="cls-1" d="M455.36,11.76q-6.62,0-6.62,6.28v67.68q0,6.28,6.62,6.28t6.62-6.28V18.04q0-6.28-6.62-6.28Z"/>
          <path class="cls-1" d="M543.58,11.76q-6.57,0-6.57,6.74v14.77c0,12.51-.05,30.9.79,42.89h-.28l-34.46-59.02q-2.94-5.38-10.36-5.38-10.13,0-10.13,9.45v64.4q0,6.39,6.57,6.39t6.51-6.39v-20.66c0-11.6,0-26.49-.79-37.63l.34-.05,34.86,59.53c2.94,5.15,2.89,5.2,11.54,5.2s8.55,0,8.55-9V18.49q0-6.74-6.56-6.74Z"/>
          <path class="cls-1" d="M631.74,11.76q-6.56,0-6.56,6.74v14.77c0,12.51-.05,30.9.79,42.89h-.28l-34.46-59.02q-2.94-5.38-10.36-5.38-10.13,0-10.13,9.45v64.4q0,6.39,6.57,6.39t6.51-6.39v-20.66c0-11.6,0-26.49-.79-37.63l.34-.05,34.86,59.53c2.94,5.15,2.89,5.2,11.54,5.2s8.55,0,8.55-9V18.49q0-6.74-6.57-6.74Z"/>
          <path class="cls-1" d="M690.08,10.68c-19.01,0-33.22,13.75-34.52,31.75-.45,6.39-.51,12.56,0,18.95,1.36,17.94,15.51,31.69,34.52,31.69s33.22-13.81,34.52-31.69c.45-6.39.45-12.62,0-18.95-1.25-18-15.57-31.75-34.52-31.75ZM690.08,23.14c11.94,0,20.32,8.15,21.28,20.54.45,5.54.51,10.92.05,16.47-1.02,12.28-9.39,20.54-21.33,20.54s-20.43-8.26-21.33-20.54c-.46-5.55-.46-10.98-.06-16.47.96-12.34,9.39-20.54,21.39-20.54Z"/>
          <path class="cls-1" d="M806.08,15.83c0-1.3-.79-1.98-5.15-3.45-2.26-.79-3.85-1.36-4.81-1.36-1.25,0-2.04.51-3.34,4.53l-22.01,63.32c-.34,1.02-.4,1.02-1.3,1.02s-.96,0-1.3-1.02l-22.13-63.43c-1.36-4.02-2.04-4.42-3.28-4.42-.96,0-2.55.57-5.15,1.42-4.13,1.41-4.87,2.03-4.87,3.45,0,.91.56,2.6,1.36,5.03l22.18,61.34c3.45,9.68,3.56,9.73,13.07,9.73s9.34,0,12.96-9.96l22.3-60.95c1.02-2.83,1.47-4.13,1.47-5.26Z"/>
          <path class="cls-1" d="M936.4,11.76h-51.89q-6.79,0-6.79,6.23t6.79,6.11h19.35v61.62q0,6.28,6.62,6.28,6.56,0,6.56-6.39V24.1h19.36q6.68,0,6.68-6.11,0-6.23-6.68-6.23Z"/>
          <path class="cls-1" d="M961.75,11.76q-6.62,0-6.62,6.28v67.68q0,6.28,6.62,6.28t6.62-6.28V18.04q0-6.28-6.62-6.28Z"/>
          <path class="cls-1" d="M1020.14,10.68c-19.01,0-33.22,13.75-34.52,31.75-.45,6.39-.51,12.56,0,18.95,1.36,17.94,15.51,31.69,34.52,31.69s33.22-13.81,34.52-31.69c.45-6.39.45-12.62,0-18.95-1.25-18-15.56-31.75-34.52-31.75ZM1020.14,80.68c-12,0-20.43-8.26-21.34-20.54-.45-5.55-.45-10.98-.05-16.47.96-12.34,9.39-20.54,21.39-20.54s20.31,8.15,21.28,20.54c.45,5.54.51,10.92.05,16.47-1.02,12.28-9.39,20.54-21.33,20.54Z"/>
          <path class="cls-1" d="M1132.92,11.76q-6.56,0-6.56,6.74v14.77c0,12.51-.05,30.9.79,42.89h-.28l-34.46-59.02q-2.94-5.38-10.36-5.38-10.13,0-10.13,9.45v64.4q0,6.39,6.57,6.39t6.51-6.39v-20.66c0-11.6,0-26.49-.79-37.63l.34-.05,34.86,59.53c2.94,5.15,2.89,5.2,11.54,5.2s8.55,0,8.55-9V18.49q0-6.74-6.57-6.74Z"/>
          <path class="cls-1" d="M1187.58,45.2c-13.19-2.49-17.66-5.66-17.66-11.66,0-6.34,4.87-10.41,15.22-10.41,7.07,0,12.9,2.03,16.92,4.87,1.41.96,2.54,1.64,3.51,1.64,1.36,0,2.2-1.3,4.18-4.3,1.93-3,2.44-3.91,2.44-4.98,0-.91-1.02-1.81-2.55-2.77-5.72-3.85-13.36-6.9-24.51-6.9-16.69,0-28.46,8.94-28.46,23.14,0,13.24,7.75,19.92,27.5,23.88,12.51,2.49,18.68,5.49,18.68,11.94,0,7.19-5.66,11.03-16.64,11.03-8.15,0-14.77-2.38-21.22-6.62-1.47-.96-2.32-1.58-3.4-1.58-1.13,0-2.03.85-3.79,3.56-1.87,2.94-2.89,4.3-2.89,5.72,0,1.07.85,1.81,2.83,3.11,6.73,4.47,15.28,8.2,28.46,8.2,18.45,0,29.88-9.62,29.88-23.88,0-13.3-8.43-20.26-28.52-23.99Z"/>
          <path class="cls-1" d="M853.16,20.75c-3.45-9.68-3.56-9.73-13.07-9.73s-9.34,0-12.96,9.96l-22.3,60.95c-1.02,2.83-1.47,4.13-1.47,5.26,0,1.3.79,1.98,5.15,3.45,2.26.79,3.85,1.36,4.81,1.36,1.25,0,2.04-.51,3.34-4.53l22.01-63.32c.34-1.02.4-1.02,1.3-1.02s.96,0,1.3,1.02l22.13,63.43c1.36,4.02,2.04,4.42,3.28,4.42.96,0,2.55-.57,5.15-1.42,4.13-1.41,4.87-2.03,4.87-3.45,0-.91-.56-2.6-1.36-5.03l-22.18-61.34Z"/>
        </g>
      </g>
    </g>
  </g>
</svg>