<?xml version="1.0" encoding="UTF-8"?>
<svg id="Calque_2" data-name="Calque 2" xmlns="http://www.w3.org/2000/svg" viewBox="0 0 183.04 201.95">
  <defs>
    <style>
      .cls-1 {
        fill: #c0ff7e;
      }
    </style>
  </defs>
  <g id="Ebene_1" data-name="Ebene 1">
    <g>
      <rect class="cls-1" x="114.11" y="124.09" width="13.97" height="61.57" rx="3.08" ry="3.08"/>
      <rect class="cls-1" x="55.66" y="124.05" width="13.97" height="61.57" rx="3.08" ry="3.08"/>
      <rect class="cls-1" x="84.9" y="140.38" width="13.97" height="61.57" rx="3.08" ry="3.08"/>
      <path class="cls-1" d="M117.69,93.07l-26.39-74.19-26.49,74.35c-.33.95-.98,1.74-1.87,2.23l-53.04,30.06c-1.97,1.11-4.49.52-5.74-1.41l-3.57-5.74c-1.15-1.9-.56-4.36,1.34-5.51.07-.03.13-.07.2-.1l48.62-27.24c.89-.49,1.54-1.25,1.9-2.2L81.3,2.75C81.92,1.08,83.49,0,85.26,0h12c1.8-.03,3.41,1.08,4.03,2.75l28.55,80.38c.33.95,1.02,1.74,1.9,2.23l49.17,27.51c1.93,1.05,2.69,3.48,1.64,5.41-.03.07-.07.13-.1.2l-3.54,5.77c-1.21,1.97-3.77,2.62-5.77,1.48l-53.6-30.46c-.85-.49-1.54-1.25-1.87-2.2Z"/>
    </g>
  </g>
</svg>