<?xml version="1.0" encoding="UTF-8"?>
<svg id="Calque_2" data-name="Calque 2" xmlns="http://www.w3.org/2000/svg" viewBox="0 0 367.46 548.6">
  <defs>
    <style>
      .cls-1 {
        fill: #fff;
      }
    </style>
  </defs>
  <g id="Ebene_1" data-name="Ebene 1">
    <g>
      <rect class="cls-1" x="209.92" y="143.9" width="16.2" height="71.4" rx="3.57" ry="3.57"/>
      <rect class="cls-1" x="142.14" y="143.86" width="16.2" height="71.4" rx="3.57" ry="3.57"/>
      <rect class="cls-1" x="176.05" y="162.79" width="16.2" height="71.4" rx="3.57" ry="3.57"/>
      <path class="cls-1" d="M214.07,107.93l-30.6-86.03-30.72,86.23c-.38,1.1-1.15,2.02-2.17,2.59l-61.51,34.86c-2.3,1.31-5.22.59-6.65-1.63l-4.14-6.65c-1.33-2.19-.63-5.04,1.56-6.37.07-.05.15-.09.23-.13l56.38-31.59c1.02-.56,1.8-1.46,2.21-2.55L171.87,3.19C172.58,1.27,174.42,0,176.47,0h13.91c2.08-.05,3.96,1.24,4.68,3.19l33.11,93.22c.39,1.1,1.18,2.02,2.21,2.59l57.03,31.9c2.26,1.2,3.12,4.01,1.92,6.27-.04.08-.08.15-.13.23l-4.11,6.69c-1.41,2.28-4.36,3.03-6.69,1.71l-62.16-35.32c-1.01-.56-1.78-1.46-2.17-2.55Z"/>
    </g>
    <g>
      <g>
        <path class="cls-1" d="M239.22,454.13c-2.38,0-4.31-1.92-4.33-4.3v-84.78h-31.86c-2.36-.02-4.28-1.93-4.3-4.3v-8.74c.02-2.36,1.93-4.28,4.3-4.3h80.6c2.33.08,4.18,2,4.18,4.33v8.74c-.04,2.31-1.88,4.18-4.18,4.26h-31.36v84.78c-.02,2.38-1.96,4.3-4.33,4.3h-8.71Z"/>
        <path class="cls-1" d="M334.19,456.68c-5.62-.05-11.19-1.08-16.46-3.04-6.13-2.41-12-5.42-17.53-9.01-.75-.5-1.28-1.28-1.44-2.17-.18-.89.03-1.82.57-2.55l5.02-7.15c.62-.88,1.62-1.4,2.7-1.41.62,0,1.22.17,1.75.49,4.47,2.9,9.2,5.36,14.14,7.34,3.53,1.3,7.26,1.98,11.03,2.01,8.71,0,14.45-3.8,16.31-7.6,3.19-6.81,2.62-15.55-5.89-19.81-2.66-1.33-6.46-3-9.81-4.45-4.68-2.05-9.66-4.22-14.52-6.62-16.92-8.33-23.57-24.67-16.12-39.77,5.72-11,17.31-17.68,29.69-17.11,4.24.03,8.45.65,12.51,1.86,6.15,2.2,12.08,4.96,17.72,8.25.81.44,1.41,1.17,1.67,2.05.24.89.1,1.84-.38,2.62l-4.64,7.6c-.63.9-1.65,1.43-2.74,1.44-.54-.01-1.07-.14-1.56-.38-4.6-2.72-9.43-5.01-14.45-6.84-2.57-.79-5.25-1.2-7.95-1.22-6.55-.51-12.81,2.77-16.12,8.44-5.51,11.41,6.65,17.98,9.16,19.24,4.68,2.28,9.54,4.41,13.84,6.27,3.8,1.63,7.6,3.31,10.57,4.79,14.94,7.6,20.34,24.37,12.85,40.22-4.87,10-16.61,16.46-29.92,16.46Z"/>
        <path class="cls-1" d="M175.88,454.74c-1.59.01-3.06-.87-3.8-2.28l-20.15-38.02h-22.13v35.89c0,2.39-1.94,4.33-4.33,4.33h-8.74c-2.39,0-4.33-1.94-4.33-4.33v-97.48c0-2.39,1.94-4.33,4.33-4.33h34.9c18.39.04,33.27,14.98,33.23,33.37,0,.19,0,.38,0,.58,0,8.36-3.41,16.36-9.43,22.16-2.25,2.24-4.81,4.15-7.6,5.66l-.95.53,20.72,39.01c.59,1.01.59,2.26,0,3.27-.59,1.02-1.68,1.64-2.85,1.63h-8.86ZM136.3,399.27h15.47c4.81-.13,9.39-2.06,12.85-5.4,3.1-2.99,4.87-7.1,4.9-11.41.44-9.88-7.21-18.25-17.09-18.69-.2,0-.39-.01-.59-.02h-22.05v35.51h6.5Z"/>
        <path class="cls-1" d="M88.17,448.7l-33.46-96.87c-.57-1.64-2.07-2.76-3.8-2.85h-13c-1.84,0-3.48,1.16-4.11,2.89L.24,448.7c-.78,2.24.41,4.69,2.65,5.47.46.16.93.24,1.42.24h8.78c1.83,0,3.47-1.16,4.07-2.89l27.07-78.28,26.88,78.32c.6,1.73,2.23,2.89,4.07,2.89h8.78c2.37.1,4.37-1.75,4.47-4.12.02-.55-.06-1.1-.25-1.62Z"/>
      </g>
      <g>
        <path class="cls-1" d="M52.35,528.45c-.32-4.07-.29-7.99,0-12.06.83-11.45,9.9-20.19,21.81-20.19,9.72,0,15.59,5.44,18.11,10.12.5.83.94,1.84.94,2.52,0,1.01-.97,1.55-2.99,2.56-1.76.86-2.56,1.08-3.13,1.08-.65,0-1.04-.51-1.55-1.33-2.16-4-5.51-7.02-11.37-7.02-7.45,0-12.81,5.22-13.43,13.07-.29,3.49-.25,6.95,0,10.47.65,7.81,6.01,13.1,13.64,13.1s12.17-4.57,12.17-10.29v-2.95h-8.28q-3.56,0-3.56-3.71t3.56-3.71h10.04q6.26,0,6.26,6.26v3.82c0,10.4-8.1,18.43-20.23,18.43s-21.13-8.75-21.99-20.16Z"/>
        <path class="cls-1" d="M140.35,546.73l-12.92-16.2c-.94-1.15-1.08-1.22-3.02-1.22h-7.27v14.54q0,4.07-4.18,4.07t-4.21-4v-40.78q0-6.26,6.26-6.26h14.76c10.55,0,16.67,6.91,16.67,16.34,0,6.98-4.1,12.53-11.12,14.29l11.7,14.29c.97,1.19,1.12,1.69,1.12,2.16,0,.79-.65,1.51-2.52,2.92-1.55,1.19-2.41,1.51-3.02,1.51-.65,0-1.15-.29-2.23-1.65ZM129.08,521.54c5.94,0,8.93-3.28,8.93-8.31s-2.95-8.5-8.93-8.5h-11.95v16.81h11.95Z"/>
        <path class="cls-1" d="M162.52,528.45c-.32-4.07-.29-7.99,0-12.06.83-11.45,9.86-20.19,21.96-20.19s21.17,8.75,21.96,20.19c.29,4.03.29,7.99,0,12.06-.83,11.38-9.9,20.16-21.96,20.16s-21.09-8.75-21.96-20.16ZM170.91,527.65c.58,7.81,5.94,13.07,13.57,13.07s12.92-5.26,13.57-13.07c.29-3.53.25-6.95-.04-10.47-.61-7.88-5.94-13.07-13.53-13.07s-12.99,5.22-13.61,13.07c-.25,3.49-.25,6.95.04,10.47Z"/>
        <path class="cls-1" d="M220.83,526.32v-25.38q0-4.07,4.18-4.07t4.21,4.07v25.81c0,8.35,5.15,13.97,12.92,13.97s12.89-5.62,12.89-13.97v-25.81q0-4.07,4.18-4.07,4.21,0,4.21,4.07v25.38c0,13.35-8.5,22.28-21.27,22.28s-21.31-8.93-21.31-22.28Z"/>
        <path class="cls-1" d="M277.58,543.92v-40.78q0-6.26,6.26-6.26h14.36c10.29,0,17.13,6.37,17.13,16.81s-6.62,16.7-17.46,16.7h-11.91v13.46q0,4.07-4.18,4.07t-4.21-4ZM297.6,522.54c6.37,0,9.32-3.64,9.32-8.82s-2.99-9-9.25-9h-11.7v17.82h11.63Z"/>
      </g>
    </g>
  </g>
</svg>