<?xml version="1.0" encoding="UTF-8"?>
<svg id="Calque_2" data-name="Calque 2" xmlns="http://www.w3.org/2000/svg" viewBox="0 0 919.76 82.12">
  <defs>
    <style>
      .cls-1 {
        fill: #f6f6f6;
      }

      .cls-2 {
        fill: #d0ff71;
      }
    </style>
  </defs>
  <g id="Ebene_1" data-name="Ebene 1">
    <g>
      <g>
        <g>
          <path class="cls-1" d="M242.56,72.53l-8.77-60.33c-1.68-11.98-1.91-12.2-12.56-12.2s-10.92.23-13.29,12.05l-11.72,53.89c-.03.17-.09.48-.1.52-.04.02-.16.04-.53.04-.18,0-.28,0-.34,0-.04,0-.05,0-.05.01-.04-.07-.1-.36-.13-.52l-11.94-54.38c-2.25-11.39-2.5-11.61-13.01-11.61s-11.22.23-12.9,12.15l-8.43,58.74c-.19,1.16-.8,5.47-.8,6.54,0,2.75,1.29,3.3,5.72,3.79,1.07.1,1.92.21,2.63.31.9.12,1.55.2,2.12.2,2.67,0,3.29-.96,3.9-6.04l7.58-60.36c.03-.16.09-.5.07-.53.07-.02.35-.02.45-.02.29,0,.41.02.44.02,0,0,0,0,0,0,.02.03.06.13.13.45l12.68,56.19c2.04,9.77,2.26,9.96,11.82,9.96s9.61-.19,11.64-9.95l12.74-56.31c.05-.24.09-.32.07-.32h0c.09-.03.39-.03.51-.03.08,0,.28,0,.39.01.03.11.05.31.06.4l7.87,61.17c.5,4.37,1.21,5.37,3.85,5.37,1.14,0,4.09-.41,5.35-.63,3.45-.53,5.18-.8,5.18-3.67,0-.83-.34-2.99-.58-4.57l-.05-.32Z"/>
          <path class="cls-1" d="M305.3,67.92h-33.56v-20.71h30.05c6.54,0,6.79-.24,6.79-6.45s-.25-6.4-6.79-6.4h-30.05V13.47h33.33c6.81,0,7.08-.25,7.08-6.79s-.26-6.68-7.08-6.68h-37.3c-10.12,0-10.41.29-10.41,10.41v60.56c0,10.12.29,10.41,10.41,10.41h37.52c6.81,0,7.08-.26,7.08-6.85s-.26-6.62-7.08-6.62Z"/>
          <path class="cls-1" d="M385.81,0h-51.9c-7.08,0-7.36.25-7.36,6.79s.28,6.68,7.36,6.68h18.79v61.07c0,6.59.27,6.85,7.19,6.85s7.13-.26,7.13-6.96V13.47h18.79c6.97,0,7.25-.25,7.25-6.68s-.27-6.79-7.25-6.79Z"/>
          <path class="cls-1" d="M450.56,49.05c10.55-3.01,17.06-11.67,17.06-22.79,0-15.95-10.51-26.26-26.77-26.26h-23.2c-10.12,0-10.42.29-10.42,10.41v64.12c0,6.59.27,6.85,7.19,6.85s7.13-.26,7.13-6.96v-22.3h10.86c2.92,0,2.97.06,4.31,1.71l20.32,25.47c1.68,2.13,2.65,2.82,3.95,2.82s2.85-.77,5.09-2.49c2.84-2.13,4.19-3.43,4.19-5.04,0-.92-.31-1.83-1.88-3.75l-17.84-21.79ZM421.55,13.47h18.22c8.69,0,13.47,4.54,13.47,12.79s-4.91,12.51-13.47,12.51h-18.22V13.47Z"/>
          <path class="cls-1" d="M558.28,71.4l-22.64-61.29c-3.63-9.92-3.89-10.11-13.61-10.11s-9.86.19-13.55,10.33l-22.53,60.96c-1.04,2.9-1.51,4.23-1.51,5.4,0,1.86,1.38,2.64,5.54,4.04l.43.15c2.18.75,3.63,1.24,4.67,1.24,1.69,0,2.58-1.15,3.82-4.91l22.12-63.31c.11-.29.23-.58.26-.63.07-.03.35-.03.62-.03.32,0,.65,0,.72.03.06.06.17.35.27.61l22.3,63.44c1.37,3.9,2.1,4.79,3.87,4.79.94,0,2.57-.54,5.28-1.45,4.22-1.46,5.36-2.13,5.36-4.04,0-1-.57-2.72-1.45-5.23Z"/>
        </g>
        <g>
          <path class="cls-1" d="M584.37,82.12c-3.13,0-4.86,0-5.54-.65-.67-.64-.67-2.26-.67-5.21V10.64c0-4.88,0-7.32,1.09-8.42,1.09-1.09,3.54-1.09,8.42-1.09h38.17c3.04,0,4.72,0,5.38.64.65.63.65,2.24.65,5.17s0,4.45-.65,5.06c-.66.63-2.34.63-5.39.63h-34.69l-.57.57v24.85l.57.57h32.14c3.05,0,4.73,0,5.39.62.64.6.64,2.15.64,4.96s0,4.45-.65,5.06c-.66.63-2.34.63-5.39.63h-32.14l-.57.57v25.83c0,2.95,0,4.58-.67,5.21-.68.65-2.41.65-5.54.65Z"/>
          <path class="cls-1" d="M656.69,82.12c-4.88,0-7.32,0-8.42-1.09-1.09-1.09-1.09-3.54-1.09-8.42V7.11c0-3.01,0-4.67.67-5.32.67-.66,2.38-.66,5.48-.66s4.86,0,5.54.65c.67.64.67,2.26.67,5.21v63.07l.57.57h33.71c3.16,0,4.9,0,5.59.64.67.63.67,2.24.67,5.16s0,4.44-.67,5.05c-.69.63-2.43.63-5.6.63h-37.12Z"/>
          <path class="cls-1" d="M724.89,82.12c-4.88,0-7.32,0-8.42-1.09-1.09-1.09-1.09-3.54-1.09-8.42V10.64c0-4.88,0-7.32,1.09-8.42,1.09-1.09,3.54-1.09,8.42-1.09h38.17c3.08,0,4.77,0,5.44.63.65.61.65,2.19.65,5.06s0,4.54-.66,5.17c-.67.64-2.36.64-5.44.64h-34.69l-.57.57v22.53l.57.57h31.33c2.94,0,4.55,0,5.19.59.62.58.62,2.08.62,4.81s0,4.27-.62,4.86c-.63.6-2.25.6-5.18.6h-31.33l-.57.57v22.35l.57.57h34.92c3.08,0,4.77,0,5.44.62.65.61.65,2.17.65,5.01s0,4.58-.66,5.22c-.67.64-2.36.64-5.43.64h-38.4Z"/>
          <path class="cls-1" d="M794.2,82.12c-4.88,0-7.32,0-8.42-1.09-1.09-1.09-1.09-3.54-1.09-8.42V10.64c0-4.88,0-7.32,1.09-8.42,1.09-1.09,3.54-1.09,8.42-1.09h38.17c3.08,0,4.77,0,5.44.63.65.61.65,2.19.65,5.06s0,4.54-.66,5.17c-.67.64-2.36.64-5.44.64h-34.69l-.57.57v22.53l.57.57h31.33c2.94,0,4.55,0,5.19.59.62.58.62,2.08.62,4.81s0,4.27-.62,4.86c-.63.6-2.25.6-5.18.6h-31.33l-.57.57v22.35l.57.57h34.92c3.08,0,4.77,0,5.44.62.65.61.65,2.17.65,5.01s0,4.58-.66,5.22c-.67.64-2.36.64-5.43.64h-38.4Z"/>
          <path class="cls-1" d="M886.97,82.12c-3.13,0-4.86,0-5.54-.65-.67-.64-.67-2.26-.67-5.21V13.19l-.57-.57h-19.81c-3.22,0-5,0-5.7-.64-.68-.61-.68-2.19-.68-5.05s0-4.53.68-5.16c.71-.65,2.48-.65,5.7-.65h53.11c3.16,0,4.9,0,5.59.64.67.63.67,2.24.67,5.16s0,4.44-.67,5.05c-.69.63-2.43.63-5.6.63h-19.81l-.57.57v62.95c0,3.01,0,4.67-.67,5.32-.67.66-2.38.66-5.48.66Z"/>
        </g>
      </g>
      <g>
        <rect class="cls-2" x="61.79" y="16.13" width="21.52" height="94.89" rx="4.75" ry="4.75" transform="translate(136.13 -8.99) rotate(90)"/>
        <rect class="cls-1" x="36.68" y="-28.89" width="21.52" height="94.89" rx="4.75" ry="4.75" transform="translate(66 -28.89) rotate(90)"/>
      </g>
    </g>
  </g>
</svg>