<?xml version="1.0" encoding="UTF-8"?>
<svg id="Calque_2" data-name="Calque 2" xmlns="http://www.w3.org/2000/svg" viewBox="0 0 882.42 82.12">
  <defs>
    <style>
      .cls-1 {
        fill: #f6f6f6;
      }

      .cls-2 {
        fill: #d0ff71;
      }
    </style>
  </defs>
  <g id="Ebene_1" data-name="Ebene 1">
    <g>
      <g>
        <g>
          <path class="cls-1" d="M584.28,80.56c-2.26,0-4.39,0-4.77-.36-.35-.33-.35-2.31-.35-4.41V11.07c0-4.24,0-6.8.78-7.59s3.34-.78,7.59-.78h37.64c2.19,0,4.25,0,4.61.35.34.32.34,2.38.34,4.37s0,3.95-.32,4.26c-.36.34-2.43.34-4.62.34h-34.63l-1.15,1.15v25.33l1.15,1.15h32.11c2.19,0,4.27,0,4.63.34.31.29.31,2.25.31,4.15s0,3.95-.32,4.26c-.36.34-2.43.34-4.62.34h-32.11l-1.15,1.15v25.89c0,2.1,0,4.08-.35,4.41-.38.36-2.51.36-4.77.36Z"/>
          <path class="cls-1" d="M653.45,80.56c-2.26,0-4.39,0-4.77-.36-.35-.33-.35-2.31-.35-4.41V7.47c0-2.1,0-4.08.35-4.41.38-.36,2.51-.36,4.77-.36s4.39,0,4.77.36c.35.33.35,2.31.35,4.41v68.31c0,2.1,0,4.08-.35,4.41-.38.36-2.51.36-4.77.36Z"/>
          <path class="cls-1" d="M690.81,80.56c-4.24,0-6.8,0-7.59-.78-.78-.78-.78-3.35-.78-7.59V11.07c0-4.24,0-6.8.78-7.59.78-.78,3.34-.78,7.59-.78h37.64c2.21,0,4.31,0,4.67.35.33.31.33,2.31.33,4.25s0,4.04-.34,4.37c-.37.35-2.45.35-4.66.35h-34.62l-1.15,1.15v23.05l1.15,1.15h31.31c2.01,0,4.09,0,4.42.31.29.31.29,2.19.29,4s0,3.75-.3,4.06c-.33.31-2.41.31-4.42.31h-31.31l-1.15,1.15v22.88l1.15,1.15h34.85c2.22,0,4.31,0,4.68.34.32.3.32,2.28.32,4.2,0,2.1,0,4.09-.34,4.42-.37.35-2.45.35-4.66.35h-37.87Z"/>
          <path class="cls-1" d="M762.09,80.56c-4.24,0-6.8,0-7.59-.78s-.78-3.34-.78-7.59V7.59c0-2.15,0-4.18.35-4.52.37-.36,2.48-.36,4.7-.36s4.39,0,4.77.36c.35.33.35,2.31.35,4.41v62.61l1.15,1.15h33.66c2.28,0,4.44,0,4.83.36.34.32.34,2.37.34,4.35s0,3.94-.33,4.24c-.39.36-2.55.36-4.84.36h-36.61Z"/>
          <path class="cls-1" d="M827.5,81.12c-4.54,0-7.04,0-7.99-.95-.95-.95-.95-3.45-.95-7.99V11.07c0-4.54,0-7.04.95-7.99s3.45-.95,7.99-.95h19.08c19.76,0,34.03,12.23,35.5,30.44.45,6.03.45,12.15,0,18.18-1.48,18.17-15.74,30.37-35.5,30.37h-19.08ZM829.93,70.44h16.36c14.28,0,23.39-7.8,24.36-20.86.41-5.21.41-10.7,0-15.86-1.11-13.29-9.98-20.91-24.36-20.91h-16.36v57.63Z"/>
          <path class="cls-1" d="M827.5,80.56c-4.24,0-6.8,0-7.59-.78-.78-.78-.78-3.35-.78-7.59V11.07c0-4.24,0-6.8.78-7.59.78-.78,3.34-.78,7.59-.78h19.08c19.45,0,33.49,12.02,34.93,29.92.45,6,.45,12.09,0,18.09-1.45,17.85-15.49,29.85-34.93,29.85h-19.08ZM829.36,13.4v56.46l1.15,1.15h15.78c14.61,0,23.93-7.99,24.92-21.38.41-5.24.41-10.76,0-15.95-1.13-13.62-10.22-21.43-24.92-21.43h-15.78l-1.15,1.15Z"/>
        </g>
        <g>
          <path class="cls-1" d="M242.56,72.53l-8.77-60.33c-1.68-11.98-1.91-12.2-12.56-12.2s-10.92.23-13.29,12.05l-11.72,53.9c-.03.17-.09.48-.1.52-.04.02-.16.04-.53.04-.18,0-.28,0-.34,0-.04,0-.05,0-.05.01-.04-.07-.1-.36-.13-.52l-11.94-54.38c-2.25-11.39-2.5-11.61-13.01-11.61s-11.22.23-12.9,12.15l-8.43,58.74c-.19,1.16-.8,5.47-.8,6.54,0,2.75,1.29,3.3,5.72,3.79,1.07.1,1.92.21,2.63.31.9.12,1.55.2,2.12.2,2.67,0,3.29-.96,3.9-6.04l7.58-60.36c.03-.16.09-.5.07-.53.07-.02.35-.02.45-.02.29,0,.41.02.44.02,0,0,0,0,0,0,.02.03.06.13.13.45l12.68,56.19c2.04,9.77,2.26,9.96,11.82,9.96s9.61-.19,11.64-9.95l12.74-56.31c.05-.24.09-.32.07-.32h0c.09-.03.39-.03.51-.03.08,0,.28,0,.39.01.03.11.05.31.06.4l7.87,61.17c.5,4.37,1.21,5.37,3.85,5.37,1.14,0,4.09-.41,5.35-.63,3.45-.53,5.18-.8,5.18-3.67,0-.83-.34-2.99-.58-4.57l-.05-.32Z"/>
          <path class="cls-1" d="M305.3,67.92h-33.56v-20.71h30.05c6.54,0,6.79-.24,6.79-6.45s-.25-6.4-6.79-6.4h-30.05V13.47h33.33c6.81,0,7.08-.25,7.08-6.79s-.26-6.68-7.08-6.68h-37.3c-10.12,0-10.41.29-10.41,10.41v60.56c0,10.12.29,10.41,10.41,10.41h37.52c6.81,0,7.08-.26,7.08-6.85s-.26-6.62-7.08-6.62Z"/>
          <path class="cls-1" d="M385.81,0h-51.9c-7.08,0-7.36.25-7.36,6.79s.28,6.68,7.36,6.68h18.79v61.07c0,6.59.27,6.85,7.19,6.85s7.13-.26,7.13-6.96V13.47h18.79c6.97,0,7.25-.25,7.25-6.68s-.27-6.79-7.25-6.79Z"/>
          <path class="cls-1" d="M450.56,49.05c10.55-3.01,17.06-11.67,17.06-22.79,0-15.95-10.51-26.26-26.77-26.26h-23.2c-10.12,0-10.42.29-10.42,10.41v64.12c0,6.59.27,6.85,7.19,6.85s7.13-.26,7.13-6.96v-22.3h10.86c2.92,0,2.97.06,4.31,1.71l20.32,25.47c1.68,2.13,2.65,2.82,3.95,2.82s2.85-.77,5.09-2.49c2.84-2.13,4.19-3.43,4.19-5.04,0-.92-.31-1.83-1.88-3.75l-17.84-21.79ZM421.55,13.47h18.22c8.69,0,13.47,4.54,13.47,12.79s-4.91,12.51-13.47,12.51h-18.22V13.47Z"/>
          <path class="cls-1" d="M558.28,71.4l-22.64-61.29c-3.63-9.92-3.89-10.11-13.61-10.11s-9.86.19-13.55,10.33l-22.53,60.96c-1.04,2.9-1.51,4.23-1.51,5.4,0,1.86,1.38,2.64,5.54,4.04l.43.15c2.18.75,3.63,1.24,4.67,1.24,1.69,0,2.58-1.15,3.82-4.91l22.12-63.31c.11-.29.23-.58.26-.63.07-.03.35-.03.62-.03.32,0,.65,0,.72.03.06.06.17.35.27.61l22.3,63.44c1.37,3.9,2.1,4.79,3.88,4.79.94,0,2.57-.54,5.28-1.45,4.22-1.46,5.36-2.13,5.36-4.04,0-1-.57-2.72-1.45-5.23Z"/>
        </g>
      </g>
      <g>
        <rect class="cls-2" x="61.79" y="16.13" width="21.52" height="94.89" rx="4.75" ry="4.75" transform="translate(136.13 -8.99) rotate(90)"/>
        <rect class="cls-1" x="36.68" y="-28.89" width="21.52" height="94.89" rx="4.75" ry="4.75" transform="translate(66 -28.89) rotate(90)"/>
      </g>
    </g>
  </g>
</svg>