<?xml version="1.0" encoding="UTF-8"?>
<svg id="Calque_2" data-name="Calque 2" xmlns="http://www.w3.org/2000/svg" viewBox="0 0 860.72 82.12">
  <defs>
    <style>
      .cls-1 {
        fill: #f6f6f6;
      }

      .cls-2 {
        fill: #d0ff71;
      }
    </style>
  </defs>
  <g id="Ebene_1" data-name="Ebene 1">
    <g>
      <g>
        <rect class="cls-2" x="61.79" y="16.13" width="21.52" height="94.89" rx="4.75" ry="4.75" transform="translate(136.13 -8.99) rotate(90)"/>
        <rect class="cls-1" x="36.68" y="-28.89" width="21.52" height="94.89" rx="4.75" ry="4.75" transform="translate(66 -28.89) rotate(90)"/>
      </g>
      <g>
        <g>
          <path class="cls-1" d="M242.56,72.53l-8.77-60.33c-1.68-11.98-1.91-12.2-12.56-12.2s-10.92.23-13.29,12.05l-11.72,53.9c-.03.17-.09.48-.1.52-.04.02-.16.04-.53.04-.18,0-.28,0-.34,0-.04,0-.05,0-.05.01-.04-.07-.1-.36-.13-.52l-11.94-54.38c-2.25-11.39-2.5-11.61-13.01-11.61s-11.22.23-12.9,12.15l-8.43,58.74c-.19,1.16-.8,5.47-.8,6.54,0,2.75,1.29,3.3,5.72,3.79,1.07.1,1.92.21,2.63.31.9.12,1.55.2,2.12.2,2.67,0,3.29-.96,3.9-6.04l7.58-60.36c.03-.16.09-.5.07-.53.07-.02.35-.02.45-.02.29,0,.41.02.44.02,0,0,0,0,0,0,.02.03.06.13.13.45l12.68,56.19c2.04,9.77,2.26,9.96,11.82,9.96s9.61-.19,11.64-9.95l12.74-56.31c.05-.24.09-.32.07-.32h0c.09-.03.39-.03.51-.03.08,0,.28,0,.39.01.03.11.05.31.06.4l7.87,61.17c.5,4.37,1.21,5.37,3.85,5.37,1.14,0,4.09-.41,5.35-.63,3.45-.53,5.18-.8,5.18-3.67,0-.83-.34-2.99-.58-4.57l-.05-.32Z"/>
          <path class="cls-1" d="M305.3,67.92h-33.56v-20.71h30.05c6.54,0,6.79-.24,6.79-6.45s-.25-6.4-6.79-6.4h-30.05V13.47h33.33c6.81,0,7.08-.25,7.08-6.79s-.26-6.68-7.08-6.68h-37.3c-10.12,0-10.41.29-10.41,10.41v60.56c0,10.12.29,10.41,10.41,10.41h37.52c6.81,0,7.08-.26,7.08-6.85s-.26-6.62-7.08-6.62Z"/>
          <path class="cls-1" d="M385.81,0h-51.9c-7.08,0-7.36.25-7.36,6.79s.28,6.68,7.36,6.68h18.79v61.07c0,6.59.27,6.85,7.19,6.85s7.13-.26,7.13-6.96V13.47h18.79c6.97,0,7.25-.25,7.25-6.68s-.27-6.79-7.25-6.79Z"/>
          <path class="cls-1" d="M450.56,49.05c10.55-3.01,17.06-11.67,17.06-22.79,0-15.95-10.51-26.26-26.77-26.26h-23.2c-10.12,0-10.42.29-10.42,10.41v64.12c0,6.59.27,6.85,7.19,6.85s7.13-.26,7.13-6.96v-22.3h10.86c2.92,0,2.97.06,4.31,1.71l20.32,25.47c1.68,2.13,2.65,2.82,3.95,2.82s2.85-.77,5.09-2.49c2.84-2.13,4.19-3.43,4.19-5.04,0-.92-.31-1.83-1.88-3.75l-17.84-21.79ZM421.55,13.47h18.22c8.69,0,13.47,4.54,13.47,12.79s-4.91,12.51-13.47,12.51h-18.22V13.47Z"/>
          <path class="cls-1" d="M558.28,71.4l-22.64-61.29c-3.63-9.92-3.89-10.11-13.61-10.11s-9.86.19-13.55,10.33l-22.53,60.96c-1.04,2.9-1.51,4.23-1.51,5.4,0,1.86,1.38,2.64,5.54,4.04l.43.15c2.18.75,3.63,1.24,4.67,1.24,1.69,0,2.58-1.15,3.82-4.91l22.12-63.31c.11-.29.23-.58.26-.63.07-.03.35-.03.62-.03.32,0,.65,0,.72.03.06.06.17.35.27.61l22.3,63.44c1.37,3.9,2.1,4.79,3.88,4.79.94,0,2.57-.54,5.28-1.45,4.22-1.46,5.36-2.13,5.36-4.04,0-1-.57-2.72-1.45-5.23Z"/>
        </g>
        <path class="cls-1" d="M608.78,82.12c-14.07,0-22.39-4.32-28.06-8.08-1.99-1.31-2.57-1.9-2.57-2.63,0-1.05.73-2.18,2.06-4.25l.73-1.14c1.79-2.77,2.54-3.29,3.3-3.29.81,0,1.53.47,2.72,1.25l.35.23c6.94,4.56,13.76,6.69,21.46,6.69,14.17,0,17.15-6.29,17.15-11.57,0-7.21-7.3-10.11-19.07-12.46-19.4-3.89-26.96-10.41-26.96-23.25s11.17-22.5,27.8-22.5c9.44,0,17.32,2.22,24.11,6.78,1.52.96,2.29,1.73,2.29,2.29,0,.9-.47,1.75-2.33,4.66-1.84,2.79-2.66,4.03-3.7,4.03-.84,0-2.03-.76-3.18-1.54-4.53-3.19-10.63-4.95-17.18-4.95-10.15,0-15.74,3.89-15.74,10.95,0,6.39,4.9,9.69,18.06,12.18,19.86,3.69,27.96,10.46,27.96,23.36,0,14.11-11.47,23.24-29.21,23.24Z"/>
        <path class="cls-1" d="M662.55,81.05c-4.74,0-7.12,0-8.19-1.06-1.06-1.06-1.06-3.44-1.06-8.19V11.45c0-4.74,0-7.13,1.06-8.19,1.06-1.06,3.44-1.06,8.19-1.06h37.17c2.99,0,4.64,0,5.29.61.63.59.63,2.13.63,4.92s0,4.41-.64,5.02c-.65.62-2.29.62-5.28.62h-33.78l-.57.57v21.94l.57.57h30.51c2.86,0,4.43,0,5.04.57.6.56.6,2.02.6,4.67s0,4.16-.6,4.72c-.61.58-2.18.58-5.04.58h-30.51l-.57.57v21.77l.57.57h34.01c2.99,0,4.64,0,5.29.6.63.59.63,2.11.63,4.87s0,4.46-.64,5.07c-.65.62-2.29.62-5.28.62h-37.4Z"/>
        <path class="cls-1" d="M784.45,81.78c-.86,0-1.38,0-2.79-4.02l-7.05-20.08-.54-.38h-33.16l-.54.38-7,19.97c-1.36,4.13-2.06,4.13-2.74,4.13-.86,0-2.29-.49-4.29-1.17l-.43-.15c-4.3-1.45-4.75-2.02-4.75-2.96s.44-2.24,1.43-5l22.45-60.74q3.47-9.56,12.44-9.56t12.5,9.33l22.56,61.09c.78,2.23,1.37,4,1.37,4.82,0,1.04-.35,1.5-4.58,2.96-2.4.8-4.14,1.38-4.89,1.38ZM757.38,13.14c-1.26,0-1.46.14-1.94,1.38l-11,31.55.54.75h24.99l.54-.75-11.05-31.53c-.49-1.25-.7-1.4-2.06-1.4Z"/>
        <path class="cls-1" d="M818.48,81.05c-4.74,0-7.13,0-8.19-1.06-1.06-1.06-1.06-3.44-1.06-8.19V8.01c0-2.93,0-4.54.65-5.17.65-.64,2.31-.64,5.33-.64s4.72,0,5.38.63c.65.61.65,2.2.65,5.07v61.42l.57.57h32.83c3.07,0,4.77,0,5.44.62.65.61.65,2.17.65,5.01s0,4.32-.65,4.91c-.67.61-2.36.61-5.44.61h-36.15Z"/>
      </g>
    </g>
  </g>
</svg>