<?xml version="1.0" encoding="UTF-8"?>
<svg id="Calque_2" data-name="Calque 2" xmlns="http://www.w3.org/2000/svg" viewBox="0 0 770.58 65.52">
  <defs>
    <style>
      .cls-1 {
        fill: #f6f6f6;
      }

      .cls-2 {
        fill: #27eaa6;
      }
    </style>
  </defs>
  <g id="Ebene_1" data-name="Ebene 1">
    <g>
      <rect class="cls-1" x="34.3" y="-32.65" width="20.13" height="88.73" rx="4.44" ry="4.44" transform="translate(32.65 56.08) rotate(-90)"/>
      <rect class="cls-2" x="57.78" y="9.44" width="20.13" height="88.73" rx="4.44" ry="4.44" transform="translate(14.04 121.66) rotate(-90)"/>
      <g>
        <path class="cls-1" d="M194.03,65.52v-23.62c0-2.92.11-5.92.33-9,.22-3.08.46-5.67.71-7.76.25-2.1.41-3.43.48-4h-.38l-12.1,44.38h-16.48l-12.19-44.29h-.38c.06.57.24,1.89.52,3.95.28,2.07.55,4.64.81,7.71.25,3.08.38,6.08.38,9v23.62h-19.33V0h29.71l9.9,37.81h.38L186.22,0h28.67v65.52h-20.86Z"/>
        <path class="cls-1" d="M227.65,0h56.66v15.72h-35.62v9.05h30.48v15.05h-30.48v10h36.29v15.71h-57.33V0Z"/>
        <path class="cls-1" d="M334.12,16.76v48.76h-21.05V16.76h-21.52V0h64v16.76h-21.43Z"/>
        <path class="cls-1" d="M424.12,30.95c-2.16,3.24-5.3,5.62-9.43,7.14l14.57,27.43h-23.62l-11.62-23.91h-7.81v23.91h-21.05V0h40.09c4.7,0,8.71.91,12.05,2.71,3.33,1.81,5.84,4.26,7.52,7.33s2.52,6.43,2.52,10.05c0,4-1.08,7.62-3.24,10.86ZM404.21,16.67c-1.14-1.14-2.54-1.71-4.19-1.71h-13.81v12.1h13.81c1.65,0,3.05-.59,4.19-1.76,1.14-1.17,1.71-2.62,1.71-4.33s-.57-3.14-1.71-4.29Z"/>
        <path class="cls-1" d="M483.16,65.52l-2.76-9.24h-22.95l-2.76,9.24h-21.52L457.07,0h24.48l23.9,65.52h-22.29ZM461.83,41.62h14.19l-6.86-23.33h-.38l-6.95,23.33Z"/>
        <path class="cls-1" d="M514.5,65.52V.19h46.28v7.81h-37.24v20.95h33.9v7.71h-33.9v28.86h-9.05Z"/>
        <path class="cls-1" d="M572.78,65.52V.19h9.05v65.33h-9.05Z"/>
        <path class="cls-1" d="M598.21,65.52V.19h50.29v7.81h-41.24v20.19h37.05v7.81h-37.05v21.72h41.81v7.81h-50.86Z"/>
        <path class="cls-1" d="M662.68,65.52V.19h9.05v57.43h32.48v7.9h-41.52Z"/>
        <path class="cls-1" d="M713.73,65.52V.19h24.38c6.86,0,12.7,1.14,17.52,3.43,4.82,2.29,8.52,5.83,11.1,10.62,2.57,4.8,3.86,11,3.86,18.62s-1.29,13.65-3.86,18.48c-2.57,4.83-6.27,8.4-11.1,10.71-4.83,2.32-10.67,3.48-17.52,3.48h-24.38ZM722.78,57.71h15.14c3.62,0,6.86-.46,9.71-1.38,2.86-.92,5.3-2.33,7.33-4.24,2.03-1.9,3.57-4.36,4.62-7.38,1.05-3.01,1.57-6.62,1.57-10.81v-1.9c0-4.32-.52-7.99-1.57-11-1.05-3.01-2.57-5.48-4.57-7.38-2-1.9-4.43-3.32-7.29-4.24-2.86-.92-6.13-1.38-9.81-1.38h-15.14v49.71Z"/>
      </g>
    </g>
  </g>
</svg>