<?xml version="1.0" encoding="UTF-8"?>
<svg id="Calque_2" data-name="Calque 2" xmlns="http://www.w3.org/2000/svg" viewBox="0 0 749.54 67.62">
  <defs>
    <style>
      .cls-1 {
        fill: #f6f6f6;
      }

      .cls-2 {
        fill: #b9edea;
      }
    </style>
  </defs>
  <g id="Ebene_1" data-name="Ebene 1">
    <g>
      <rect class="cls-1" x="34.3" y="-31.61" width="20.13" height="88.73" rx="4.44" ry="4.44" transform="translate(31.61 57.13) rotate(-90)"/>
      <rect class="cls-2" x="57.78" y="10.49" width="20.13" height="88.73" rx="4.44" ry="4.44" transform="translate(12.99 122.71) rotate(-90)"/>
      <g>
        <path class="cls-1" d="M194.03,66.47v-23.62c0-2.92.11-5.92.33-9,.22-3.08.46-5.67.71-7.76.25-2.1.41-3.43.48-4h-.38l-12.1,44.38h-16.48l-12.19-44.29h-.38c.06.57.24,1.89.52,3.95.28,2.07.55,4.64.81,7.71.25,3.08.38,6.08.38,9v23.62h-19.33V.95h29.71l9.9,37.81h.38L186.22.95h28.67v65.52h-20.86Z"/>
        <path class="cls-1" d="M227.65.95h56.66v15.72h-35.62v9.05h30.48v15.05h-30.48v10h36.29v15.71h-57.33V.95Z"/>
        <path class="cls-1" d="M334.12,17.71v48.76h-21.05V17.71h-21.52V.95h64v16.76h-21.43Z"/>
        <path class="cls-1" d="M424.12,31.9c-2.16,3.24-5.3,5.62-9.43,7.14l14.57,27.43h-23.62l-11.62-23.91h-7.81v23.91h-21.05V.95h40.09c4.7,0,8.71.91,12.05,2.71,3.33,1.81,5.84,4.26,7.52,7.33s2.52,6.43,2.52,10.05c0,4-1.08,7.62-3.24,10.86ZM404.21,17.62c-1.14-1.14-2.54-1.71-4.19-1.71h-13.81v12.1h13.81c1.65,0,3.05-.59,4.19-1.76s1.71-2.62,1.71-4.33-.57-3.14-1.71-4.29Z"/>
        <path class="cls-1" d="M483.16,66.47l-2.76-9.24h-22.95l-2.76,9.24h-21.52L457.07.95h24.48l23.9,65.52h-22.29ZM461.83,42.57h14.19l-6.86-23.33h-.38l-6.95,23.33Z"/>
        <path class="cls-1" d="M538.5,67.62c-3.56,0-6.97-.35-10.24-1.05-3.27-.7-6.18-1.82-8.71-3.38-2.54-1.56-4.56-3.57-6.05-6.05-1.49-2.47-2.24-5.52-2.24-9.14,0-.32.01-.63.05-.95.03-.32.05-.63.05-.95h9.14c0,.19-.02.49-.05.91-.03.41-.05.78-.05,1.09,0,2.54.76,4.7,2.29,6.48,1.52,1.78,3.63,3.1,6.33,3.95,2.7.86,5.76,1.29,9.19,1.29,1.52,0,3.13-.1,4.81-.28,1.68-.19,3.3-.52,4.86-1,1.55-.48,2.95-1.11,4.19-1.9,1.24-.8,2.22-1.78,2.95-2.95.73-1.17,1.09-2.62,1.09-4.33,0-2.16-.62-3.95-1.86-5.38-1.24-1.43-2.87-2.6-4.9-3.52-2.03-.92-4.33-1.75-6.91-2.48-2.57-.73-5.22-1.44-7.95-2.14-2.73-.7-5.38-1.51-7.95-2.43-2.57-.92-4.87-2.06-6.91-3.43-2.03-1.36-3.67-3.06-4.9-5.09-1.24-2.03-1.86-4.51-1.86-7.43,0-2.73.55-5.17,1.67-7.33,1.11-2.16,2.76-3.98,4.95-5.48,2.19-1.49,4.9-2.63,8.14-3.43,3.24-.79,6.95-1.19,11.14-1.19,3.43,0,6.62.37,9.57,1.09,2.95.73,5.56,1.84,7.81,3.33,2.25,1.49,4.01,3.38,5.29,5.67,1.27,2.29,1.9,5.05,1.9,8.29v1.14h-8.95v-1.43c0-2.16-.67-4-2-5.52-1.33-1.53-3.16-2.7-5.48-3.53-2.32-.82-4.94-1.24-7.86-1.24-3.81,0-6.99.37-9.52,1.1-2.54.73-4.43,1.78-5.67,3.14-1.24,1.36-1.86,2.9-1.86,4.62,0,1.97.62,3.62,1.86,4.95,1.24,1.33,2.87,2.43,4.9,3.29,2.03.86,4.35,1.63,6.95,2.33,2.6.7,5.25,1.41,7.95,2.14,2.7.73,5.33,1.56,7.9,2.48,2.57.92,4.89,2.06,6.95,3.43,2.06,1.36,3.7,3.08,4.9,5.14,1.21,2.06,1.81,4.59,1.81,7.57,0,4.63-1.14,8.4-3.43,11.29-2.29,2.89-5.43,5-9.43,6.33s-8.64,2-13.9,2Z"/>
        <path class="cls-1" d="M578.59,66.47V1.14h50.29v7.81h-41.24v20.19h37.05v7.81h-37.05v21.72h41.81v7.81h-50.86Z"/>
        <path class="cls-1" d="M635.54,66.47L661.35,1.14h11.9l25.9,65.33h-9.81l-6.38-16.19h-31.81l-6.29,16.19h-9.33ZM654.11,42.57h25.81l-7.9-20.47c-.19-.57-.48-1.36-.86-2.38-.38-1.02-.8-2.14-1.24-3.38-.44-1.24-.89-2.51-1.33-3.81-.45-1.3-.86-2.49-1.24-3.57h-.57c-.45,1.27-.95,2.73-1.52,4.38-.57,1.65-1.14,3.25-1.71,4.81-.57,1.56-1.05,2.87-1.43,3.95l-8,20.47Z"/>
        <path class="cls-1" d="M708.01,66.47V1.14h9.05v57.43h32.48v7.9h-41.52Z"/>
      </g>
    </g>
  </g>
</svg>