<?xml version="1.0" encoding="UTF-8"?>
<svg id="Calque_2" data-name="Calque 2" xmlns="http://www.w3.org/2000/svg" viewBox="0 0 800.39 65.52">
  <defs>
    <style>
      .cls-1 {
        fill: #f6f6f6;
      }

      .cls-2 {
        fill: #d0ff71;
      }
    </style>
  </defs>
  <g id="Ebene_1" data-name="Ebene 1">
    <g>
      <rect class="cls-2" x="57.78" y="9.44" width="20.13" height="88.73" rx="4.44" ry="4.44" transform="translate(121.66 -14.04) rotate(90)"/>
      <rect class="cls-1" x="34.3" y="-32.65" width="20.13" height="88.73" rx="4.44" ry="4.44" transform="translate(56.08 -32.65) rotate(90)"/>
      <g>
        <path class="cls-1" d="M194.03,65.52v-23.62c0-2.92.11-5.92.33-9,.22-3.08.46-5.67.71-7.76.25-2.1.41-3.43.48-4h-.38l-12.1,44.38h-16.48l-12.19-44.29h-.38c.06.57.24,1.89.52,3.95.28,2.07.55,4.64.81,7.71.25,3.08.38,6.08.38,9v23.62h-19.33V0h29.71l9.9,37.81h.38L186.22,0h28.67v65.52h-20.86Z"/>
        <path class="cls-1" d="M227.65,0h56.66v15.72h-35.62v9.05h30.48v15.05h-30.48v10h36.29v15.71h-57.33V0Z"/>
        <path class="cls-1" d="M334.12,16.76v48.76h-21.05V16.76h-21.52V0h64v16.76h-21.43Z"/>
        <path class="cls-1" d="M424.12,30.95c-2.16,3.24-5.3,5.62-9.43,7.14l14.57,27.43h-23.62l-11.62-23.91h-7.81v23.91h-21.05V0h40.09c4.7,0,8.71.91,12.05,2.71,3.33,1.81,5.84,4.26,7.52,7.33s2.52,6.43,2.52,10.05c0,4-1.08,7.62-3.24,10.86ZM404.21,16.67c-1.14-1.14-2.54-1.71-4.19-1.71h-13.81v12.1h13.81c1.65,0,3.05-.59,4.19-1.76s1.71-2.62,1.71-4.33-.57-3.14-1.71-4.29Z"/>
        <path class="cls-1" d="M483.16,65.52l-2.76-9.24h-22.95l-2.76,9.24h-21.52L457.07,0h24.48l23.9,65.52h-22.29ZM461.83,41.62h14.19l-6.86-23.33h-.38l-6.95,23.33Z"/>
        <path class="cls-1" d="M514.5,65.52V.19h46.28v7.81h-37.24v20.95h33.9v7.71h-33.9v28.86h-9.05Z"/>
        <path class="cls-1" d="M572.78,65.52V.19h9.05v57.43h32.48v7.9h-41.52Z"/>
        <path class="cls-1" d="M623.83,65.52V.19h50.29v7.81h-41.24v20.19h37.05v7.81h-37.05v21.72h41.81v7.81h-50.86Z"/>
        <path class="cls-1" d="M688.3,65.52V.19h50.29v7.81h-41.24v20.19h37.05v7.81h-37.05v21.72h41.81v7.81h-50.86Z"/>
        <path class="cls-1" d="M768.77,65.52V8.1h-22.38V.19h54v7.9h-22.57v57.43h-9.05Z"/>
      </g>
    </g>
  </g>
</svg>